<?xml version="1.0" standalone="no"?>
<!DOCTYPE svg PUBLIC "-//W3C//DTD SVG 20010904//EN"
 "http://www.w3.org/TR/2001/REC-SVG-20010904/DTD/svg10.dtd">
<svg version="1.0" xmlns="http://www.w3.org/2000/svg"
 width="260.000000pt" height="260.000000pt" viewBox="0 0 260.000000 260.000000"
 preserveAspectRatio="xMidYMid meet">
<metadata>
Created by potrace 1.11, written by Peter Selinger 2001-2013
</metadata>
<g transform="translate(0.000000,260.000000) scale(0.100000,-0.100000)"
fill="#000000" stroke="none">
<path d="M1188 2455 c-2 -2 -23 -6 -48 -9 -107 -14 -342 -98 -412 -147 -14
-11 -29 -19 -32 -19 -12 0 -140 -95 -191 -142 -147 -134 -307 -420 -285 -508
7 -28 42 -50 80 -50 28 1 24 -5 148 181 139 208 261 321 439 408 154 76 301
109 458 104 55 -1 107 -4 115 -6 8 -2 33 -7 55 -11 98 -19 242 -82 383 -167
35 -21 66 -39 68 -39 2 0 25 -13 51 -30 26 -16 57 -30 69 -30 26 0 64 43 64
72 0 92 -209 250 -440 333 -147 52 -224 65 -377 64 -78 0 -143 -2 -145 -4z"/>
<path d="M1093 1859 c-132 -32 -265 -89 -364 -154 -94 -62 -238 -207 -307
-307 l-53 -77 27 -43 c182 -290 484 -508 793 -571 150 -32 398 -12 521 41 50
21 163 97 201 133 50 49 192 174 222 197 49 36 147 92 162 92 11 0 11 -10 -1
-62 -46 -198 -136 -366 -271 -504 -87 -89 -180 -164 -203 -164 -5 0 -10 -4
-10 -9 0 -9 -152 -81 -222 -105 -54 -18 -96 -28 -118 -28 -57 1 -92 -96 -50
-138 23 -23 29 -23 136 -4 370 65 721 378 856 764 77 223 68 357 -27 388 -116
38 -268 -10 -390 -125 -23 -21 -79 -74 -125 -117 -183 -171 -301 -218 -525
-211 -108 4 -169 15 -259 49 -180 68 -346 195 -487 374 -46 59 -47 55 27 127
180 173 383 283 576 310 33 5 162 6 208 1 91 -9 210 -70 272 -139 35 -39 99
-130 122 -174 l17 -33 -110 0 c-155 0 -159 2 -259 137 -44 60 -98 119 -80 88
3 -5 9 -32 12 -60 4 -27 11 -77 16 -110 13 -81 14 -78 -22 -72 -99 15 -210 65
-274 123 -16 15 -38 35 -50 45 l-20 19 2 -75 c1 -41 -2 -75 -6 -75 -4 0 -53
23 -110 50 -56 28 -104 49 -107 47 -8 -9 20 -63 62 -123 25 -35 45 -65 45 -68
0 -3 -18 -33 -40 -67 -38 -59 -45 -84 -18 -62 25 21 155 61 228 72 108 16 150
19 150 12 0 -3 -18 -52 -40 -109 -22 -56 -40 -108 -40 -114 0 -7 12 -1 28 13
56 51 146 112 221 149 71 36 151 64 158 56 3 -3 -44 -182 -64 -245 -3 -9 14 3
37 27 117 120 250 197 392 226 42 9 79 16 81 16 8 0 -70 205 -103 270 -57 112
-111 174 -214 241 -111 73 -214 101 -383 103 -92 2 -132 -3 -220 -25z"/>
<path d="M162 1118 c4 -93 11 -130 37 -208 78 -230 238 -446 425 -574 131 -90
305 -167 407 -180 41 -5 145 7 157 19 9 9 -9 55 -33 84 -29 33 -57 49 -163 92
-40 16 -101 43 -135 60 -231 116 -409 338 -511 637 -39 116 -50 133 -110 162
-78 37 -79 36 -74 -92z"/>
</g>
</svg>
